<svg width="51" height="60" viewBox="0 0 51 60" fill="none" xmlns="http://www.w3.org/2000/svg">
<path d="M25.3624 29.5987C33.273 29.5987 39.6858 23.1966 39.6858 15.2993C39.6858 7.40203 33.273 1 25.3624 1C17.4518 1 11.0391 7.40203 11.0391 15.2993C11.0391 23.1966 17.4518 29.5987 25.3624 29.5987Z" fill="#E32C26" stroke="#E32C26" stroke-width="2" stroke-miterlimit="10" stroke-linecap="round" stroke-linejoin="round"/>
<path d="M31.1566 9.51514H25.363V21.0832H19.5693" stroke="white" stroke-width="2" stroke-miterlimit="10" stroke-linecap="round" stroke-linejoin="round"/>
<path d="M19.5693 9.51514V15.2992H31.1566V21.0832" stroke="white" stroke-width="2" stroke-miterlimit="10" stroke-linecap="round" stroke-linejoin="round"/>
<path d="M6.21995 29.2602L4.96921 19.6972C4.5355 18.0969 2.68464 17.3 1.26175 18.1549C0.32308 18.7188 -0.0577797 19.815 0.00702499 20.8357L0.805189 32.6409C0.92472 33.9559 1.46964 35.1963 2.35769 36.1749L11.4674 46.3072V51.2464H19.0188V41.1195C19.0188 39.5164 18.5341 37.9505 17.6282 36.6268L11.011 27.5554C10.2032 26.3545 8.57308 26.0348 7.37003 26.8413C6.1671 27.6478 5.84683 29.2753 6.65472 30.4762L12.0517 37.6185" fill="#E32C26"/>
<path d="M21.4232 51.2461H9.0625V58.656H21.4232V51.2461Z" stroke="#E32C26" stroke-width="2" stroke-miterlimit="10" stroke-linecap="round" stroke-linejoin="round"/>
<path d="M44.5059 29.2602L45.7566 19.6972C46.1903 18.0969 48.0412 17.3 49.4641 18.1549C50.4028 18.7188 50.7836 19.815 50.7188 20.8357L49.9207 32.6409C49.8011 33.9559 49.2562 35.1963 48.3682 36.1749L39.2585 46.3072V51.2464H31.707V41.1195C31.707 39.5164 32.1917 37.9505 33.0977 36.6268L39.7148 27.5554C40.5227 26.3545 42.1528 26.0348 43.3558 26.8413C44.5587 27.6478 44.879 29.2753 44.0711 30.4762L38.6742 37.6185" fill="#E32C26"/>
<path d="M41.6634 51.2461H29.3027V58.656H41.6634V51.2461Z" stroke="#E32C26" stroke-width="2" stroke-miterlimit="10" stroke-linecap="round" stroke-linejoin="round"/>
</svg>
